<?xml version='1.0' encoding='iso-8859-1'?>
<!DOCTYPE svg PUBLIC '-//W3C//DTD SVG 1.1//EN' 'http://www.w3.org/Graphics/SVG/1.1/DTD/svg11.dtd'>
<!-- Uploaded to: SVG Repo, www.svgrepo.com, Generator: SVG Repo Mixer Tools -->
<svg fill="#000000" height="800px" width="800px" version="1.1" xmlns="http://www.w3.org/2000/svg" viewBox="0 0 462.845 462.845" xmlns:xlink="http://www.w3.org/1999/xlink" enable-background="new 0 0 462.845 462.845">
  <g>
    <path d="m449.568,97.75c0-5.523-4.478-10-10-10s-10,4.477-10,10v8.788h-17.845v-8.788c0-5.523-4.478-10-10-10s-10,4.477-10,10v8.788h-17.847l.002-53.326c0-5.523-4.478-10-10-10s-10,4.477-10,10v8.788h-17.845v-8.788c0-5.523-4.478-10-10-10s-10,4.477-10,10v8.788h-17.845v-52c0-5.523-4.478-10-10-10s-10,4.477-10,10v8.788h-17.845v-8.788c0-5.523-4.478-10-10-10s-10,4.477-10,10v8.788h-17.843v-8.788c0-5.523-4.477-10-10-10s-10,4.477-10,10v8.788h-17.845v-8.788c0-5.523-4.477-10-10-10s-10,4.477-10,10v8.788h-17.845v-8.788c0-5.523-4.477-10-10-10s-10,4.477-10,10v8.788h-17.845v-8.788c0-5.523-4.477-10-10-10s-10,4.477-10,10v8.788h-17.844v-8.788c0-5.523-4.477-10-10-10s-10,4.477-10,10v8.788h-17.844v-8.788c0-5.523-4.477-10-10-10s-10,4.477-10,10v355.095c0,5.523 4.477,10 10,10s10-4.477 10-10v-8.788h17.844v8.788c0,5.523 4.477,10 10,10s10-4.477 10-10v-8.788h17.843l.001,52.001c0,5.523 4.477,10 10,10s10-4.477 10-10v-8.788h17.845v8.788c0,5.523 4.477,10 10,10s10-4.477 10-10v-8.788h17.843l.001,53.326c0,5.523 4.477,10 10,10s10-4.477 10-10v-8.788h17.846v8.788c0,5.523 4.477,10 10,10s10-4.477 10-10v-8.788h17.844v8.788c0,5.523 4.478,10 10,10s10-4.477 10-10v-8.788h17.845v8.788c0,5.523 4.478,10 10,10s10-4.477 10-10v-8.788h17.845v8.788c0,5.523 4.478,10 10,10s10-4.477 10-10v-8.788h17.845v8.788c0,5.523 4.478,10 10,10s10-4.477 10-10v-8.788h17.845v8.788c0,5.523 4.478,10 10,10s10-4.477 10-10v-8.788h17.845v8.788c0,5.523 4.478,10 10,10s10-4.477 10-10v-355.096zm-20.003,235.654h-55.689v-26.116h55.689v26.116zm0-46.117h-55.689v-26.117h55.689v26.117zm0-46.116h-55.689v-26.116h55.689v26.116zm0-46.117h-55.689v-26.116h55.689v26.116zm-55.689,184.466v-26.116h55.689v26.116h-55.689zm55.689-252.982v22.4h-55.689v-22.4h55.689zm-75.689-44.537v297.519h-244.912v-14.396c0-0.01 0.001-0.019 0.001-0.029v-8.788h17.845v8.788c0,5.523 4.477,10 10,10s10-4.477 10-10v-8.788h17.845v8.788c0,5.523 4.477,10 10,10s10-4.477 10-10v-8.788h17.844v8.788c0,5.523 4.477,10 10,10s10-4.477 10-10v-8.788h17.844v8.788c0,5.523 4.478,10 10,10s10-4.477 10-10v-8.788h17.845v8.788c0,5.523 4.478,10 10,10s10-4.477 10-10v-283.094h55.688zm-114.081,244.494c0-17.459 14.199-31.663 31.653-31.663 2.292,0 4.543,0.245 6.74,0.722v40.753h-36.849c-1.023-3.139-1.544-6.421-1.544-9.812zm-206.519-287.707h244.912v141.437c-6.247-15.327-21.302-26.163-38.849-26.163-23.126,0-41.94,18.814-41.94,41.94s18.814,41.94 41.94,41.94c17.546,0 32.601-10.835 38.849-26.163v63.504c-2.221-0.289-4.468-0.451-6.74-0.451-28.481,0-51.653,23.176-51.653,51.663 0,3.3 0.325,6.587 0.948,9.812h-187.467v-297.519zm228.003,157.214c0,12.098-9.842,21.94-21.939,21.94s-21.94-9.842-21.94-21.94 9.842-21.94 21.94-21.94 21.939,9.843 21.939,21.94zm-76.626,228.055v-15.72c0-0.01 0.001-0.019 0.001-0.029v-8.788h17.845v8.788c0,5.523 4.477,10 10,10s10-4.477 10-10v-8.788h17.844v8.788c0,5.523 4.478,10 10,10s10-4.477 10-10v-8.788h17.845v8.788c0,5.523 4.478,10 10,10s10-4.477 10-10v-8.788h17.845v8.788c0,5.523 4.478,10 10,10s10-4.477 10-10v-8.788h17.845v8.788c0,5.523 4.478,10 10,10s10-4.477 10-10v-8.788h55.688v24.538h-244.913z"/>
    <path d="m93.732,160.911c1.248,0 2.482-0.061 3.707-0.151 6.649,13.155 20.18,21.757 35.494,21.757 21.95,0 39.807-17.857 39.807-39.807 0-18.281-12.161-33.641-29.001-38.331-3.039-24.901-24.299-44.257-50.007-44.257-27.788,0-50.394,22.607-50.394,50.395s22.607,50.394 50.394,50.394zm48.24-35.829c6.418,3.277 10.769,9.922 10.769,17.628 0,10.922-8.885,19.807-19.807,19.807-6.247,0-11.893-2.879-15.55-7.518 11.714-6.254 20.679-16.996 24.588-29.917zm-48.24-44.96c16.76,0 30.395,13.635 30.395,30.395s-13.635,30.395-30.395,30.395c-16.759,0-30.394-13.635-30.394-30.395s13.635-30.395 30.394-30.395z"/>
    <path d="m146.673,255.185c0,18.464 15.021,33.485 33.485,33.485 18.464,0 33.485-15.021 33.485-33.485s-15.021-33.485-33.485-33.485c-18.464-0.001-33.485,15.021-33.485,33.485zm33.485-13.486c7.436,0 13.485,6.049 13.485,13.485 0,7.436-6.049,13.485-13.485,13.485-7.436,0-13.485-6.049-13.485-13.485 5.68434e-14-7.435 6.049-13.485 13.485-13.485z"/>
    <path d="m214.328,133.068c18.463,0 33.485-15.021 33.485-33.485s-15.021-33.485-33.485-33.485c-18.464,0-33.485,15.021-33.485,33.485s15.022,33.485 33.485,33.485zm0-46.97c7.436,0 13.485,6.049 13.485,13.485s-6.049,13.485-13.485,13.485-13.485-6.049-13.485-13.485 6.05-13.485 13.485-13.485z"/>
    <path d="m107.903,277.721c0-1.008-0.048-2.009-0.136-3.003 14.213-8.237 23.801-23.607 23.801-41.183 0-26.233-21.343-47.576-47.576-47.576-26.234,0-47.577,21.343-47.577,47.576 0,10.312 3.308,19.86 8.905,27.661-2.835,4.999-4.387,10.703-4.387,16.524 0,18.464 15.021,33.485 33.485,33.485 18.464,0.001 33.485-15.02 33.485-33.484zm-23.911-71.762c15.206,0 27.576,12.371 27.576,27.576s-12.371,27.576-27.576,27.576c-15.206,0-27.577-12.371-27.577-27.576s12.371-27.576 27.577-27.576zm-23.059,71.762c0-0.835 0.085-1.655 0.231-2.457 6.781,3.724 14.56,5.848 22.828,5.848 1.178,0 2.342-0.058 3.499-0.142-1.459,5.869-6.759,10.237-13.073,10.237-7.436-0.001-13.485-6.05-13.485-13.486z"/>
  </g>
</svg>